<?xml version="1.0" encoding="UTF-8" standalone="no"?>
<svg
   xmlns:dc="http://purl.org/dc/elements/1.1/"
   xmlns:cc="http://creativecommons.org/ns#"
   xmlns:rdf="http://www.w3.org/1999/02/22-rdf-syntax-ns#"
   xmlns:svg="http://www.w3.org/2000/svg"
   xmlns="http://www.w3.org/2000/svg"
   xml:space="preserve"
   style="enable-background:new 0 0 286.054 286.054;"
   viewBox="0 0 286.054 286.054"
   y="0px"
   x="0px"
   id="Layer_1"
   version="1.1"><metadata
   id="metadata41"><rdf:RDF><cc:Work
       rdf:about=""><dc:format>image/svg+xml</dc:format><dc:type
         rdf:resource="http://purl.org/dc/dcmitype/StillImage" /><dc:title></dc:title></cc:Work></rdf:RDF></metadata><defs
   id="defs39" />
<g
   transform="translate(0,0.0049856)"
   style="fill:#00ff55"
   id="g4">
	<path
   id="path2"
   d="M 143.027,0.004 C 64.04,0.004 0,64.036 0,143.022 c 0,78.996 64.04,143.027 143.027,143.027 78.987,0 143.027,-64.031 143.027,-143.027 0,-78.977 -64.04,-143.018 -143.027,-143.018 z m 0,259.228 c -64.183,0 -116.209,-52.026 -116.209,-116.209 0,-64.183 52.026,-116.21 116.209,-116.21 64.183,0 116.209,52.026 116.209,116.209 0,64.183 -52.026,116.21 -116.209,116.21 z M 200.863,136.434 119.007,90.853 c -5.962,-3.638 -11.827,-0.706 -11.827,6.526 v 91.367 c 0,7.223 5.864,10.173 11.827,6.517 l 81.722,-44.91 c 7.581,-4.318 4.819,-11.282 0.134,-13.919 z"
   style="fill:#00ff00" />
</g>
<g
   id="g6">
</g>
<g
   id="g8">
</g>
<g
   id="g10">
</g>
<g
   id="g12">
</g>
<g
   id="g14">
</g>
<g
   id="g16">
</g>
<g
   id="g18">
</g>
<g
   id="g20">
</g>
<g
   id="g22">
</g>
<g
   id="g24">
</g>
<g
   id="g26">
</g>
<g
   id="g28">
</g>
<g
   id="g30">
</g>
<g
   id="g32">
</g>
<g
   id="g34">
</g>
</svg>